<svg viewBox="0 0 16 16" fill="none" xmlns="http://www.w3.org/2000/svg">
  <path fill-rule="evenodd" clip-rule="evenodd" d="M7.2308 1.84616C6.93944 1.84616 6.67308 2.01078 6.54278 2.27138L5.98616 3.38462H3.38465C2.95981 3.38462 2.61542 3.72902 2.61542 4.15385C2.61542 4.57869 2.95981 4.92308 3.38465 4.92308L3.38465 12.6154C3.38465 13.4651 4.07344 14.1539 4.92311 14.1539H11.077C11.9266 14.1539 12.6154 13.4651 12.6154 12.6154V4.92308C13.0403 4.92308 13.3846 4.57869 13.3846 4.15385C13.3846 3.72902 13.0403 3.38462 12.6154 3.38462H10.0139L9.45729 2.27138C9.32698 2.01078 9.06063 1.84616 8.76926 1.84616H7.2308ZM5.69234 6.46155C5.69234 6.03671 6.03674 5.69231 6.46157 5.69231C6.88641 5.69231 7.2308 6.03671 7.2308 6.46155V11.0769C7.2308 11.5018 6.88641 11.8462 6.46157 11.8462C6.03674 11.8462 5.69234 11.5018 5.69234 11.0769V6.46155ZM9.53849 5.69231C9.11366 5.69231 8.76926 6.03671 8.76926 6.46155V11.0769C8.76926 11.5018 9.11366 11.8462 9.53849 11.8462C9.96333 11.8462 10.3077 11.5018 10.3077 11.0769V6.46155C10.3077 6.03671 9.96333 5.69231 9.53849 5.69231Z" fill="currentColor"/>
</svg>
